# xmcd
#
# Track frame offsets:
#	150
#	15027
#	34570
#	53110
#	67587
#	85027
#	99617
#	112950
#	129725
#	144472
#
# Disc length: 2218 seconds
#
# Revision: 0
# Processed by: cddbd v1.5.2PL0 Copyright (c) Steve Scherf et al.
# Submitted via: audiograbber 1.83.01
#
DISCID=6e08a80a
DTITLE=Arconada, Jimmy - I love Germany
DYEAR=1991
DGENRE=Pop
TTITLE0=I love Germany
TTITLE1=Let it be me
TTITLE2=Tribute to Bob Marley
TTITLE3=Holiday fever
TTITLE4=Song of Eden
TTITLE5=Help me make it through the night
TTITLE6=My special prayer
TTITLE7=Mallorca
TTITLE8=The lonely one
TTITLE9=Mallorca (Dance Version)
EXTD=
EXTT0=
EXTT1=
EXTT2=
EXTT3=
EXTT4=
EXTT5=
EXTT6=
EXTT7=
EXTT8=
EXTT9=
PLAYORDER=
